<svg xmlns="http://www.w3.org/2000/svg" xmlns:xlink="http://www.w3.org/1999/xlink" width="64" height="74" viewBox="0 0 64 74">
  <defs>
    <clipPath id="clip-path">
      <rect id="Rectangle_58" data-name="Rectangle 58" width="64" height="74" transform="translate(797 1283)" fill="none" stroke="#707070" stroke-width="1"/>
    </clipPath>
  </defs>
  <g id="Mask_Group_21" data-name="Mask Group 21" transform="translate(-797 -1283)" clip-path="url(#clip-path)">
    <g id="Group_52" data-name="Group 52" transform="translate(-201.959 2073.67)">
      <path id="Path_457" data-name="Path 457" d="M1034.477-769.991h1.3q9.938,0,19.876,0c1.564,0,1.67.108,1.67,1.7q0,12.354,0,24.708c0,1.628-.091,1.715-1.767,1.715h-15.808c0,1.536-.009,2.988,0,4.439.021,2.762.127,2.612-2.65,2.592-.834-.006-1.669,0-2.625,0,0,1.43.011,2.773,0,4.115a2.66,2.66,0,0,1-2.943,2.912q-11.97.012-23.94,0a2.672,2.672,0,0,1-2.994-2.971q-.007-23.391,0-46.781a2.671,2.671,0,0,1,2.991-2.973q11.915-.01,23.83,0,3.047,0,3.057,3.018C1034.484-775.065,1034.477-772.614,1034.477-769.991Zm-25.315-8.783c-.3,0-.477,0-.658,0-2.148-.023-2.148-.023-2.148,2.1q0,22.617,0,45.234c0,1.828.045,1.873,1.825,1.874h18.665c1.537,0,3.078.056,4.609-.037.427-.026,1.16-.466,1.185-.764.123-1.471.056-2.958.056-4.467-7.188,0-14.214,0-21.24,0-1.438,0-1.587-.146-1.588-1.562q0-12.516,0-25.032c0-1.362.163-1.527,1.51-1.528q7.411-.005,14.822,0h1.242c0-1.959.034-3.783-.013-5.605-.026-1.03.356-1.479,1.41-1.437,1.265.051,2.533.012,3.875.012v-6.266c0-2.624,0-2.624-2.608-2.5a.835.835,0,0,0-.228.1c-.208.794-.447,1.6-.626,2.42a1.094,1.094,0,0,1-1.219.984c-5.672-.011-11.345.012-17.017-.045a1.62,1.62,0,0,1-1.132-.872A17.629,17.629,0,0,1,1009.162-778.773Zm28.774,24.68h-26.221v17.44h26.221Zm7.04-5.114L1041.47-745.2l-1.649-.344v1.83H1055.5v-17.411h-15.681v14.749l.124.013,3.332-13.287Zm-15.679-9v5.174h26.178v-5.174Zm-17.6,7.063V-756H1037.9v-5.144Zm-.263-15.937h16.209l.392-1.614h-17Z" fill="#1a85f8"/>
      <path id="Path_458" data-name="Path 458" d="M1088.213-653.468l1.7.43-3.5,14.038-1.7-.429Z" transform="translate(-62.517 -99.153)" fill="#1a85f8"/>
      <path id="Path_459" data-name="Path 459" d="M1054.5-641.782l4.926,4.71-1.353,1.123c-.958-.974-1.992-1.988-2.98-3.044-.836-.893-1.62-1.836-2.427-2.757.818-.953,1.613-1.926,2.46-2.852.956-1.045,1.958-2.047,3.034-3.165l1.183,1.347Z" transform="translate(-37.507 -103.602)" fill="#1a85f8"/>
      <path id="Path_460" data-name="Path 460" d="M1110.6-635.175l-1.179-1.251,4.865-4.591-4.982-4.653,1.338-1.17c1.77,1.741,3.573,3.484,5.317,5.283a1.082,1.082,0,0,1-.04,1.055C1114.2-638.72,1112.432-636.994,1110.6-635.175Z" transform="translate(-81.706 -104.327)" fill="#1a85f8"/>
      <path id="Path_461" data-name="Path 461" d="M1190.547-667.076l-1.106-1.093,4.672-4.591-4.91-4.816,1.5-1.138c.7.7,1.515,1.51,2.328,2.322.878.878,1.749,1.761,2.632,2.632.45.444.641.933.15,1.43C1194.1-670.6,1192.364-668.884,1190.547-667.076Z" transform="translate(-144.052 -79.454)" fill="#1a85f8"/>
      <path id="Path_462" data-name="Path 462" d="M1132.839-716.33h1.636v1.655h-1.636Z" transform="translate(-100.071 -50.102)" fill="#1a85f8"/>
      <path id="Path_463" data-name="Path 463" d="M1150.553-716.262v1.625h-1.644v-1.625Z" transform="translate(-112.611 -50.155)" fill="#1a85f8"/>
      <path id="Path_464" data-name="Path 464" d="M1166.613-716.224v1.609h-1.667v-1.609Z" transform="translate(-125.124 -50.184)" fill="#1a85f8"/>
      <path id="Path_465" data-name="Path 465" d="M1212.9-716.444h1.609v1.667H1212.9Z" transform="translate(-162.545 -50.013)" fill="#1a85f8"/>
      <path id="Path_466" data-name="Path 466" d="M1054.6-682.514h-1.609v-1.666h1.609Z" transform="translate(-37.764 -75.189)" fill="#1a85f8"/>
      <path id="Path_467" data-name="Path 467" d="M1068.986-684.356h1.61v1.668h-1.61Z" transform="translate(-50.246 -75.051)" fill="#1a85f8"/>
      <path id="Path_468" data-name="Path 468" d="M1084.689-682.559v-1.59h1.668v1.59Z" transform="translate(-62.499 -75.213)" fill="#1a85f8"/>
      <path id="Path_469" data-name="Path 469" d="M1134.476-682.524h-1.635v-1.629h1.635Z" transform="translate(-100.073 -75.21)" fill="#1a85f8"/>
    </g>
  </g>
</svg>
