<svg xmlns="http://www.w3.org/2000/svg" xmlns:xlink="http://www.w3.org/1999/xlink" width="64" height="74" viewBox="0 0 64 74">
  <defs>
    <clipPath id="clip-path">
      <rect id="Rectangle_56" data-name="Rectangle 56" width="64" height="74" transform="translate(797 1283)" fill="none" stroke="#707070" stroke-width="1"/>
    </clipPath>
  </defs>
  <g id="Mask_Group_19" data-name="Mask Group 19" transform="translate(-797 -1283)" clip-path="url(#clip-path)">
    <g id="Group_50" data-name="Group 50" transform="translate(-94.218 2034.065)">
      <path id="Path_436" data-name="Path 436" d="M958.984-540.089a5.979,5.979,0,0,1-.007,7.323c1.535,1.375,1.26,3.224,1.111,4.971a3.482,3.482,0,0,1-3.52,3.1q-6.818.029-13.636-.005a3.549,3.549,0,0,1-3.525-3.437c-.03-.716-.019-1.435,0-2.152a3.647,3.647,0,0,1,1.136-2.488,6.013,6.013,0,0,1,.009-7.3c-1.552-1.445-1.255-3.341-1.067-5.136a3.417,3.417,0,0,1,3.439-2.938q6.818-.029,13.636,0a3.593,3.593,0,0,1,3.591,3.6c.006.307-.019.616,0,.922A4.112,4.112,0,0,1,958.984-540.089Zm-9.188,6.375v0c2.221,0,4.442.006,6.664,0a1.78,1.78,0,0,0,1.869-1.871c.006-.581.016-1.162,0-1.743a1.775,1.775,0,0,0-1.8-1.792q-6.766-.016-13.532,0a1.8,1.8,0,0,0-1.8,1.793c-.016.529-.011,1.059-.007,1.589a1.852,1.852,0,0,0,2.043,2.027Q946.516-533.712,949.8-533.715Zm-.025,7.21v0c2.221,0,4.441.005,6.662,0a1.777,1.777,0,0,0,1.9-1.888c0-.478,0-.957,0-1.435a1.849,1.849,0,0,0-2.084-2.076q-4.279,0-8.558,0c-1.537,0-3.075-.01-4.612,0a1.819,1.819,0,0,0-1.883,1.873c-.008.5-.009.991,0,1.486a1.846,1.846,0,0,0,2.071,2.043Q946.518-526.5,949.772-526.5Zm.032-14.432v-.008c2.22,0,4.441.009,6.661,0a1.768,1.768,0,0,0,1.864-1.871c.006-.564.014-1.128,0-1.691a1.765,1.765,0,0,0-1.808-1.828q-6.764-.015-13.528,0a1.777,1.777,0,0,0-1.8,1.79c-.014.478-.007.956-.007,1.435,0,1.5.694,2.174,2.206,2.172Q946.6-540.94,949.8-540.937Z" transform="translate(-38.806 -173.627)" fill="#1a85f8"/>
      <path id="Path_437" data-name="Path 437" d="M948.235-712.86l-1.438-1.01a8.994,8.994,0,0,0,.4-9.686c-1.1-2.009-3.466-3.839-5.215-4.083l.124,2.215h-1.76a14.611,14.611,0,0,0-12.52-14.285,14.636,14.636,0,0,0-15.511,9.2l-1.653-.615.534-1.341c-1.284-.516-4.026.455-4.732,2.526l1.41.076-.141,1.763c-3.916-.1-6.962,1.378-8.785,4.829s-1.31,6.8.952,9.934a2.008,2.008,0,0,1-.175.187c-.367.3-.737.605-1.155.947-.17-.208-.34-.391-.482-.593a10.829,10.829,0,0,1,5.8-16.684.75.75,0,0,0,.613-.511,6.249,6.249,0,0,1,7.231-4.3.619.619,0,0,0,.747-.3,15.913,15.913,0,0,1,11.185-6.894,16.208,16.208,0,0,1,17.658,11.174.973.973,0,0,0,.8.758,10.841,10.841,0,0,1,6.333,16.391C948.4-713.074,948.336-713,948.235-712.86Z" fill="#1a85f8"/>
      <path id="Path_438" data-name="Path 438" d="M1246.384-491.526c-1.179,0-2.359.008-3.538,0a3.573,3.573,0,0,1-3.653-3.673q-.016-2.666,0-5.333a3.578,3.578,0,0,1,3.612-3.617q3.59-.021,7.179,0a3.571,3.571,0,0,1,3.629,3.652q.02,2.641,0,5.282a3.571,3.571,0,0,1-3.691,3.689C1248.743-491.518,1247.563-491.526,1246.384-491.526Zm-.017-1.8c1.2,0,2.391.014,3.587,0a1.816,1.816,0,0,0,1.865-1.894c.008-.564.007-1.128-.005-1.691a1.8,1.8,0,0,0-1.821-1.821c-.666-.012-1.333.015-2-.009a3.5,3.5,0,0,1-3.06-1.834c-.138-.235-.252-.485-.382-.725a1.878,1.878,0,0,0-2.2-.986,1.842,1.842,0,0,0-1.366,1.873q-.008,2.562,0,5.124a1.83,1.83,0,0,0,1.947,1.965C1244.078-493.316,1245.222-493.323,1246.367-493.323Zm-.228-9.014a2.075,2.075,0,0,0,2.26,1.787,6.591,6.591,0,0,1,3.353.45,1.788,1.788,0,0,0-1.68-2.229c-.647-.025-1.3-.007-1.944-.008Z" transform="translate(-307.915 -213.118)" fill="#1a85f8"/>
      <path id="Path_439" data-name="Path 439" d="M1246.417-324.389c-1.162,0-2.324.008-3.487,0a3.61,3.61,0,0,1-3.738-3.811c.007-1.692,0-3.384.006-5.076a3.6,3.6,0,0,1,3.742-3.749q3.461-.011,6.922,0a3.591,3.591,0,0,1,3.758,3.734q.022,2.64,0,5.281a3.6,3.6,0,0,1-3.619,3.618C1248.81-324.377,1247.613-324.389,1246.417-324.389Zm-.025-1.8c1.2,0,2.392.012,3.587,0A1.8,1.8,0,0,0,1251.82-328c.018-.495.009-.991,0-1.486a1.851,1.851,0,0,0-2.1-2.115,17.64,17.64,0,0,1-2.149-.043,3.791,3.791,0,0,1-2.984-2.447,1.823,1.823,0,0,0-2.2-1.069,1.858,1.858,0,0,0-1.4,1.952q-.009,2.537,0,5.073a1.824,1.824,0,0,0,1.917,1.942C1244.068-326.185,1245.23-326.193,1246.392-326.193Zm5.373-6.77a1.766,1.766,0,0,0-1.43-2.2c-1.384-.091-2.779-.023-4.182-.023a2.066,2.066,0,0,0,2.307,1.771A6.472,6.472,0,0,1,1251.764-332.963Z" transform="translate(-307.923 -363.103)" fill="#1a85f8"/>
      <path id="Path_440" data-name="Path 440" d="M1158.775-450.995v1.772h-2.646v16.235h2.634v1.808c-1.235,0-2.445.022-3.653-.01-.554-.015-.831-.421-.831-1.086q0-3.845,0-7.69,0-4.383,0-8.767v-.463h-2.658v-1.8Z" transform="translate(-229.333 -260.831)" fill="#1a85f8"/>
      <path id="Path_441" data-name="Path 441" d="M1060.085-442.051v1.725h-5.367v-1.725Z" transform="translate(-142.372 -268.858)" fill="#1a85f8"/>
      <path id="Path_442" data-name="Path 442" d="M968.279-441.491a.907.907,0,0,1-.9.87.891.891,0,0,1-.9-.914.9.9,0,0,1,.9-.872A.9.9,0,0,1,968.279-441.491Z" transform="translate(-63.182 -268.538)" fill="#1a85f8"/>
      <path id="Path_443" data-name="Path 443" d="M993.742-442.42a.907.907,0,0,1,.879.943.893.893,0,0,1-.922.844.918.918,0,0,1-.885-.89A.907.907,0,0,1,993.742-442.42Z" transform="translate(-86.819 -268.527)" fill="#1a85f8"/>
      <path id="Path_444" data-name="Path 444" d="M1020.265-442.39a.894.894,0,0,1,.886.928.883.883,0,0,1-.9.856.885.885,0,0,1-.881-.929A.868.868,0,0,1,1020.265-442.39Z" transform="translate(-110.649 -268.554)" fill="#1a85f8"/>
      <path id="Path_445" data-name="Path 445" d="M1054.635-370.087v-1.75H1060v1.75Z" transform="translate(-142.298 -331.869)" fill="#1a85f8"/>
      <path id="Path_446" data-name="Path 446" d="M993.693-372.114a.917.917,0,0,1,.921.9.922.922,0,0,1-.909.912.95.95,0,0,1-.9-.877A.921.921,0,0,1,993.693-372.114Z" transform="translate(-86.81 -331.62)" fill="#1a85f8"/>
      <path id="Path_447" data-name="Path 447" d="M968.279-371.211a.937.937,0,0,1-.917.907.923.923,0,0,1-.888-.88.915.915,0,0,1,.888-.929A.921.921,0,0,1,968.279-371.211Z" transform="translate(-63.179 -331.621)" fill="#1a85f8"/>
      <path id="Path_448" data-name="Path 448" d="M1020.226-372.1a.91.91,0,0,1,.925.9.907.907,0,0,1-.867.9.9.9,0,0,1-.918-.9A.881.881,0,0,1,1020.226-372.1Z" transform="translate(-110.647 -331.636)" fill="#1a85f8"/>
      <path id="Path_449" data-name="Path 449" d="M1060.1-510.88h-5.354v-1.756h5.354Z" transform="translate(-142.395 -205.514)" fill="#1a85f8"/>
      <path id="Path_450" data-name="Path 450" d="M993.739-511.122a.931.931,0,0,1-.925-.9.937.937,0,0,1,.862-.911.937.937,0,0,1,.945.878A.9.9,0,0,1,993.739-511.122Z" transform="translate(-86.818 -205.249)" fill="#1a85f8"/>
      <path id="Path_451" data-name="Path 451" d="M967.4-511.109a.9.9,0,0,1-.92-.892.931.931,0,0,1,.906-.915.936.936,0,0,1,.9.925A.923.923,0,0,1,967.4-511.109Z" transform="translate(-63.182 -205.262)" fill="#1a85f8"/>
      <path id="Path_452" data-name="Path 452" d="M1020.255-512.892a.921.921,0,0,1,.883.945.9.9,0,0,1-.906.861.9.9,0,0,1-.879-.943A.9.9,0,0,1,1020.255-512.892Z" transform="translate(-110.634 -205.284)" fill="#1a85f8"/>
    </g>
  </g>
</svg>
